# xmcd CD database file
#
# Track frame offsets:
#	150
#	16138
#	30891
#	53924
#	75294
#	90094
#	108225
#	133962
#	157569
#	172025
#	194375
#	216260
#	228050
#
# Disc length: 3234 seconds
#
# Revision: 0
# Processed by: cddbd v1.4PL0 Copyright (c) Steve Scherf et al.
# Submitted via: CDex 1.50beta8
#
DISCID=8a0ca00d
DTITLE=Margaret Carlson - Once In A Blue Moon
DYEAR=2000
DGENRE=Jazz
TTITLE0=Tip Toe Through The Tulips
TTITLE1=A Sleepin' Bee
TTITLE2=You Don't Know What Love Is
TTITLE3=Blue Moon
TTITLE4=Day By Day
TTITLE5=The More I See You
TTITLE6=The Very Thought Of You
TTITLE7=Come Rain Or Shine
TTITLE8=Speak Low
TTITLE9=But Not For Me
TTITLE10=Secret Love
TTITLE11=But Beautiful
TTITLE12=That's All
EXTD=YEAR: 2000
EXTT0=
EXTT1=
EXTT2=
EXTT3=
EXTT4=
EXTT5=
EXTT6=
EXTT7=
EXTT8=
EXTT9=
EXTT10=
EXTT11=
EXTT12=
PLAYORDER=
